<svg width="153" height="44" viewBox="0 0 153 44" fill="none" xmlns="http://www.w3.org/2000/svg">
<path fill-rule="evenodd" clip-rule="evenodd" d="M18.5 44C28.7173 44 37 34.1503 37 22C37 9.84975 28.7173 0 18.5 0C8.28271 0 0 9.84975 0 22C0 34.1503 8.28271 44 18.5 44ZM24.2714 10.2485C24.5523 9.06186 23.5839 8.36015 22.6995 9.10944L10.3536 19.5685C9.3945 20.3811 9.54536 22 10.5803 22H13.8313V21.9701H20.1673L15.0046 24.1363L12.7287 33.7515C12.4477 34.9382 13.416 35.6399 14.3005 34.8906L26.6464 24.4315C27.6055 23.619 27.4546 22 26.4198 22H21.4897L24.2714 10.2485Z" fill="#205EC7"/>
<path d="M57.264 12.6L52.72 35H46.704L42.16 12.6H46.768L48.528 22.968L49.616 29.688H49.808L50.896 22.968L52.656 12.6H57.264ZM58.8135 35V18.648H63.0375V35H58.8135ZM58.8135 12.6H63.0375V16.92H58.8135V12.6ZM65.7823 12.6H70.0063V19.8C70.4756 19.3733 70.9129 19.0747 71.3183 18.904C71.7449 18.7333 72.3743 18.648 73.2063 18.648H75.7663C76.6623 19.5227 77.3663 20.6533 77.8783 22.04C78.3903 23.4267 78.6463 24.952 78.6463 26.616C78.6463 30.1787 77.5796 32.9733 75.4463 35H72.4062C71.3609 35 70.4863 34.6053 69.7823 33.816L69.2063 35H65.7823V12.6ZM70.0383 31.64H73.1103C73.8996 30.296 74.2943 28.664 74.2943 26.744C74.2943 24.824 73.8889 23.2453 73.0783 22.008H70.0383V31.64ZM88.3305 22.008H85.9305C85.6105 22.392 85.3438 22.9253 85.1305 23.608C84.9385 24.2907 84.8425 24.952 84.8425 25.592H89.4185C89.4612 24.952 89.3758 24.2907 89.1625 23.608C88.9492 22.904 88.6718 22.3707 88.3305 22.008ZM92.6825 31.64V35H84.5545C83.0612 33.9973 82.0052 32.76 81.3865 31.288C80.7892 29.7947 80.4905 28.2907 80.4905 26.776C80.4905 23.2773 81.8132 20.568 84.4585 18.648H89.6425C91.0718 19.6933 92.0425 20.8027 92.5545 21.976C93.0665 23.1493 93.3225 24.3333 93.3225 25.528C93.3225 26.7227 93.2265 27.7467 93.0345 28.6H85.0665C85.1305 29.0907 85.3118 29.656 85.6105 30.296C85.9305 30.9147 86.2718 31.3627 86.6345 31.64H92.6825ZM95.6298 35V12.6H104.75C105.795 12.984 106.723 13.656 107.534 14.616C108.344 15.576 108.75 16.7387 108.75 18.104C108.75 20.5147 107.96 22.2 106.382 23.16V23.288C108.344 24.376 109.326 26.0827 109.326 28.408C109.326 31.0747 107.971 33.272 105.262 35H95.6298ZM99.9818 21.848H103.15C104.088 21.272 104.558 20.3973 104.558 19.224C104.558 18.0507 104.12 17.1227 103.246 16.44H99.9818V21.848ZM99.9818 31.288H103.278C103.662 31.0107 104.003 30.5733 104.302 29.976C104.622 29.3787 104.782 28.7813 104.782 28.184C104.782 27.5867 104.654 27.0427 104.398 26.552C104.142 26.0613 103.822 25.6987 103.438 25.464H99.9818V31.288ZM115.725 12.6V35H111.501V12.6H115.725ZM128.198 35H121.222C119.088 33.016 118.022 30.3067 118.022 26.872C118.022 25.144 118.256 23.64 118.726 22.36C119.216 21.08 119.984 19.8427 121.03 18.648H128.518C129.627 19.928 130.384 21.176 130.79 22.392C131.195 23.5867 131.398 25.08 131.398 26.872C131.398 30.3067 130.331 33.016 128.198 35ZM123.494 31.64H125.926C126.694 30.1467 127.078 28.4507 127.078 26.552C127.078 24.6533 126.683 23.1387 125.894 22.008H123.494C122.726 23.096 122.342 24.6427 122.342 26.648C122.342 28.632 122.726 30.296 123.494 31.64ZM146.073 18.648V33.304C146.073 34.9253 145.859 36.2267 145.433 37.208C145.027 38.1893 144.206 39.0533 142.969 39.8H135.673V36.472H141.145C141.678 36.152 141.945 35.64 141.945 34.936V33.048C141.155 33.7093 139.897 34.04 138.169 34.04H135.833C134.105 31.9707 133.241 29.5707 133.241 26.84C133.241 24.8773 133.518 23.2773 134.073 22.04C134.627 20.7813 135.438 19.6507 136.505 18.648H138.873C140.259 18.648 141.358 19.096 142.169 19.992L142.745 18.648H146.073ZM141.817 22.008H138.713C137.945 23.3307 137.561 24.856 137.561 26.584C137.561 28.2907 137.891 29.6987 138.553 30.808H141.817V22.008Z" fill="black"/>
</svg>
