<svg width="62" height="66" viewBox="0 0 62 66" fill="none" xmlns="http://www.w3.org/2000/svg">
<path fill-rule="evenodd" clip-rule="evenodd" d="M31 66C48.1208 66 62 51.2254 62 33C62 14.7746 48.1208 0 31 0C13.8791 0 0 14.7746 0 33C0 51.2254 13.8791 66 31 66ZM40.6709 15.3728C41.1417 13.5928 39.519 12.5402 38.037 13.6642L17.3493 29.3528C15.7421 30.5717 15.9949 33 17.7291 33H23.1767V32.9551H33.7939L25.1429 36.2044L21.3291 50.6273C20.8584 52.4073 22.4809 53.4598 23.963 52.3358L44.6507 36.6473C46.2579 35.4284 46.0049 33 44.271 33H36.0098L40.6709 15.3728Z" fill="#205EC7"/>
</svg>
